<?xml version="1.0" encoding="UTF-8"?>
<svg id="Capa_2" xmlns="http://www.w3.org/2000/svg" viewBox="0 0 1373.31 1369.83">
  <g id="Capa_1-2" data-name="Capa_1">
    <path d="M1373.31,724.75v10.29c-2.32,23.75-3.39,47.59-7.59,71.2-18,101.26-56.91,193.67-115.92,277.78-26.48,37.75-56.63,72.38-90.09,103.99-57.08,53.93-121.67,96.76-193.48,128.68-58.02,25.79-118.41,43.26-181.3,52.04-5.89.82-12.35,3.23-16.8-3.5-1.71-5.01-1.28-10.2-1.28-15.32-.03-145.14-.03-290.28-.01-435.42,0-21.16.88-22.03,21.96-22.04,49.41-.03,98.82.02,148.23-.02,15.51-.01,15.75-.19,18.61-15.47,10.82-57.66,21.07-115.43,31.78-173.11,2.39-12.89,2.2-12.96-11.29-12.96-61.42,0-122.84,0-184.25,0-3.77,0-7.55.1-11.32-.1-10.85-.59-13.38-2.82-13.57-13.64-.4-22.64.13-45.29-.22-67.93-.29-18.95.8-37.69,4.93-56.24,11.45-51.38,43.89-82.82,95.75-92.34,39.48-7.25,79.3-5.18,119.03-3.51,13.8.58,15.03.49,15.05-13.15.06-52.15.06-104.31,0-156.46-.02-12.97-.68-14-13.22-16.31-79.9-14.71-160.03-19.2-240.31-3.32-54.96,10.88-105.09,32.23-144.55,73.39-35.09,36.61-55.7,81.1-66.73,130.29-8.74,38.99-12.96,78.44-12.66,118.4.2,26.76.07,53.53.03,80.29-.03,19.38-1.2,20.59-20.18,20.62-35.34.05-70.68,0-106.02.03-15.53.02-15.83.29-15.84,15.22-.03,57.3-.04,114.6,0,171.9.01,13.79.62,14.39,14.58,14.41,36.37.06,72.74-.05,109.11.06,16.42.05,18.31,1.91,18.32,18.42.06,142.74.05,285.47.01,428.21,0,3.77.08,7.56-1.08,11.21-3.27,6.66-8.79,4.01-13.45,2.73-30.79-8.43-61.15-18.18-90.45-30.93-51.43-22.38-100.42-49.12-145.26-82.99-47.55-35.92-89.96-77.19-127.26-123.7-29.07-36.25-54.15-75.16-74.98-116.61-36.33-72.32-60.09-148.63-69.29-229.21-1.31-11.45-.54-23.11-2.32-34.57v-12.35c1.74-6.86,1.74-13.73,0-20.59v-76.18c2.59-19.59,3.14-39.37,6.59-58.93,14.89-84.41,44.69-163.13,89.02-236.37,51.9-85.74,119.56-156.63,202.2-213.28C385.27,57.39,481.68,20.23,586.34,4.15c17.88-2.75,36.06-1.91,53.99-4.15h92.65c14.15,2.31,28.52,1.36,42.73,3.05,52.03,6.18,102.37,19.11,151.34,37.48,77.16,28.94,147.21,70,209.53,124.02,63.06,54.66,114.43,118.7,154.58,191.94,37.99,69.3,62.38,143.07,75.47,220.8,3.76,22.35,4.96,44.87,5.68,67.47.13,4.01-1.21,8.19,1,12.04v39.12c-2.32,5.24-.46,10.75-1.06,16.1.54,4.23-1.17,8.64,1.06,12.73Z"/>
  </g>
</svg>