<?xml version="1.0" encoding="UTF-8"?>
<svg id="Capa_2" xmlns="http://www.w3.org/2000/svg" viewBox="0 0 1373.31 1340.33">
  <g id="Capa_1-2" data-name="Capa_1">
    <path d="M814.79,990.63c30.35-6.22,61.26-11.07,91.33-19.03,70.02-18.53,129.36-53.39,169.14-115.76,26.66-41.81,40.06-88.23,45.75-136.87,5.53-47.25,7.41-94.53-4.91-141.32-10.32-39.17-28.63-74.07-55.38-104.54-4.35-4.95-5.3-9.1-3.21-15.56,18.27-56.57,12.91-112.31-7.61-167.12-1.36-3.63-7.97-7.29-12.33-7.54-27.02-1.49-52.94,5.25-76.81,16.57-32.05,15.21-62.66,33.42-94.14,49.85-4.61,2.41-11.13,3.97-15.97,2.78-108.05-26.68-216.06-27.1-324.06-.15-7.7,1.92-13.46,1.19-20.31-3.29-40.01-26.14-81.42-49.8-128.56-61-13.44-3.19-27.56-3.63-41.41-5.01-6.75-.67-10.5,2.77-12.78,9.3-19.29,55.22-24.28,110.84-6.26,167.47,1.08,3.4.24,8.99-2.02,11.6-56.14,64.89-71.64,141.1-64.3,223.91,4.15,46.81,13.1,92.39,33.83,135.05,32.28,66.43,85.21,110.21,154.89,132.79,34.68,11.24,71.29,16.66,107.04,24.63,4.25.95,8.62,1.34,10.47,1.62-9.91,18.67-20.32,37.22-29.61,56.3-3.44,7.07-5.1,15.3-6.03,23.18-1.21,10.3-6.12,15.67-16.03,19.04-46.03,15.69-91.27,19.34-134.84-7.08-22.82-13.84-38.64-34.22-52.64-56.47-22.27-35.41-52.1-61.37-95.06-68.32-9.49-1.53-19.86-.59-29.35,1.41-12.92,2.72-15.41,10.79-6.74,20.59,5.74,6.49,12.51,12.62,19.94,17.02,33.71,19.97,54.16,50.42,70.74,84.49,8.57,17.61,16.44,36.26,28.55,51.34,30.65,38.18,73.79,53.48,121.36,55.09,28.79.97,57.75-2.84,88.27-4.59,0,11.58-.12,24.97.03,38.36.29,26.63.84,53.26,1.06,79.89.27,32.72-21.12,48.32-52.28,37.58-71.04-24.48-136.64-59.21-195.78-105.39-135.63-105.92-223.27-242.5-254.96-410.85-42.25-224.51,12.35-425.47,165.61-596.46C293.54,96.84,438.38,22.88,609.48,4.29c280.25-30.46,539.32,103.03,677.52,347.46,50.01,88.45,77.76,183.79,84.57,285.07,9.17,136.34-17.9,265.11-85.21,384.38-85.73,151.91-212.13,257.08-377.51,315.63-30.82,10.91-52.02-4.38-51.92-36.49.18-61.3.5-122.59.73-183.89.12-32.88-4.63-64.86-20.84-94.02-6.3-11.34-14.79-21.49-22.03-31.8Z"/>
  </g>
</svg>