<?xml version="1.0" encoding="UTF-8"?>
<svg id="Capa_2" xmlns="http://www.w3.org/2000/svg" viewBox="0 0 1373.31 1373.31">
  <g id="Capa_1-2" data-name="Capa_1">
    <g>
      <path d="M686.17,532.02c-84.56-.13-155.04,69.25-155.12,152.68-.09,88.09,68.58,157.85,155.41,157.85,86.07,0,155.2-69.26,155.24-155.54.04-86.15-68.91-154.87-155.52-154.99Z"/>
      <path d="M1062.84,466.27c-3.91-31.04-12.13-60.57-30.42-86.49-29.05-41.15-69.87-61.72-119-67.68-49.73-6.04-99.75-5.92-149.7-6.53-72.76-.89-145.52-.12-218.27.67-35.74.39-71.53,1.38-106.46,9.58-65.07,15.28-107.14,55.09-123.36,120.35-8.47,34.07-9.77,69.2-9.99,104.09-.67,104.02-.91,208.04.67,312.07.46,30.61,2.28,60.95,10.6,90.56,8.08,28.76,21.63,54.45,43.64,75.15,29.83,28.06,66.38,40.79,106.12,45.63,37.62,4.58,75.54,3.35,113.32,4.42,31.63.9,63.3.18,94.96.18,66,.22,132,.29,197.97-2.2,23.57-.89,46.96-3.73,69.79-9.92,54.58-14.79,91.35-48.72,109.9-102.33,9.07-26.2,12.55-53.34,13.47-80.79,1.24-37.22,1.96-74.46,2.22-111.7.45-65.8.61-131.61-.56-197.42-.58-32.62-.81-65.21-4.9-97.64ZM684.33,925.64c-132.94-1.05-236.72-108.47-236.54-239,.18-131.97,106.86-237.99,239.36-237.9,131.73.1,238,106.71,237.9,238.68-.09,132.77-106.96,239.27-240.72,238.22ZM934.38,495.11c-30.51.02-55.73-25.18-55.72-55.67.02-30.69,24.91-55.46,55.76-55.51,31.06-.04,55.44,24.36,55.46,55.51.02,30.87-24.68,55.64-55.51,55.67Z"/>
      <path d="M686.65,0C307.43,0,0,307.43,0,686.65s307.43,686.65,686.65,686.65,686.65-307.43,686.65-686.65S1065.88,0,686.65,0ZM1150.71,673.73c-1.63,65.6.22,131.2-1.21,196.79-.85,39.16-6.09,77.67-19.83,114.7-28.29,76.26-81.74,125.65-159.17,149.54-30.45,9.4-61.73,13.68-93.5,14.77-62.32,2.14-124.66.6-186.99,1.04-50.95,0-101.91.58-152.85-.19-37-.56-74.12-.93-110.6-8.92-62.98-13.79-115.09-44.68-153.08-97.51-23.08-32.09-36.02-68.43-43.39-106.99-6.79-35.47-6.9-71.34-7.08-107.26-.5-99.58-1.73-199.16-.78-298.74.42-43.87,3.25-87.65,16.91-129.83,29.78-91.95,93.31-146.65,186.71-167.8,27-6.11,54.6-8.29,82.18-9.08,103.81-3,207.64-1.17,311.47-1.11,40.73.02,81.46,1.05,121.61,9.08,49.28,9.86,93.79,29.47,129.99,65.35,42.61,42.23,66.44,93.67,73.82,152.9,3.03,24.33,3.57,48.87,4.58,73.34,2.08,49.95,2.46,99.97,1.22,149.92Z"/>
    </g>
  </g>
</svg>