<?xml version="1.0" encoding="UTF-8"?>
<svg id="Capa_2" xmlns="http://www.w3.org/2000/svg" viewBox="0 0 1373.08 1373.31">
  <g id="Capa_1-2" data-name="Capa_1">
    <path d="M689.42,0C310.78-.61,3.84,304.41.04,679.5c-3.87,381.52,304.79,693.73,686.84,693.81,378.26.08,686.2-308.55,686.2-686.23S1065.24.6,689.42,0ZM447.68,1098.66c-50.06-.37-100.12-.31-150.17,0-7.03.04-9.2-1.52-9.19-8.95.23-176.71.21-353.42.04-530.14,0-6.48,1.05-8.82,8.3-8.77,50.97.37,101.95.4,152.92-.01,7.52-.06,8.14,2.63,8.13,8.85-.18,88.2-.12,176.41-.12,264.61.01,88.2-.13,176.41.23,264.61.03,8.37-2.31,9.86-10.13,9.8ZM372.37,469.03c-53.78-.23-96.66-43.73-96.4-97.8.25-52.94,44.23-96.55,97.23-96.39,53.48.16,97.18,44.19,96.94,97.7-.23,53.76-43.77,96.73-97.77,96.5ZM1086.82,1098.7c-48.83-.44-97.67-.36-146.51-.04-7.11.05-9.11-1.66-9.08-8.97.34-96.44.41-192.88.34-289.32-.02-27.84-5.72-54.23-25.27-75.38-25.16-27.21-57.67-34.69-92.85-29.87-59.99,8.23-95.98,50.73-96.1,111.96-.19,93.7-.16,187.39.14,281.09.03,8.26-1.89,10.61-10.4,10.53-48.22-.45-96.45-.37-144.68-.05-7.54.05-10.33-1.05-10.31-9.71.32-176.4.29-352.81.07-529.21,0-7.31,1.98-8.96,9.05-8.91,46.09.33,92.18.32,138.27,0,6.85-.05,8.74,1.65,8.59,8.56-.47,22.52-.18,45.05-.18,69.68,38.7-48.85,87.33-77.01,146.41-85.86,68.1-10.2,129.05,6.79,180.54,53.3,28.32,25.59,42.21,60,53.93,95.2,6.2,18.61,8.39,37.98,8.36,57.69-.16,112.92-.17,225.85.11,338.77.02,8.27-1.91,10.62-10.43,10.54Z"/>
  </g>
</svg>