<?xml version="1.0" encoding="UTF-8"?>
<svg id="Capa_2" xmlns="http://www.w3.org/2000/svg" viewBox="0 0 1373.41 1373.31">
  <g id="Capa_1-2" data-name="Capa_1">
    <g>
      <path d="M687.64,0C308.61-.37.36,307.41,0,686.62c-.36,377.51,307.36,686.19,684.58,686.69,380.16.51,688.41-306.05,688.83-685.05C1373.82,308.58,1066.74.37,687.64,0ZM1062.44,990.49c-125.44.03-250.88.01-376.32.01-124.49,0-248.98.03-373.46-.02-34.55-.02-45.41-10.89-45.42-45.18-.02-172.66-.02-345.32,0-517.98,0-33.14,11.36-44.38,44.82-44.38,250.41-.02,500.81-.02,751.22,0,31.13,0,43.48,12.24,43.48,43.07.02,173.61.01,347.23,0,520.84,0,31.74-12.04,43.63-44.32,43.64Z"/>
      <path d="M979.13,466.17H394.44c98.66,86.19,195.13,170.46,292.33,255.38,97.33-85.02,193.79-169.28,292.36-255.38Z"/>
      <path d="M721.32,782.29c-29.46,25.98-39.47,26-69.49-.17-16.05-13.99-32.14-27.94-48.41-42.07-67.39,60.13-133.49,119.11-201.55,179.83h572.19c-68.91-61.43-135.37-120.68-202.95-180.92-17.5,15.22-33.74,29.17-49.8,43.33Z"/>
      <path d="M336.61,506.75v379.41c72.71-64.82,143.25-127.71,214.99-191.67-72.02-62.89-142.63-124.54-214.99-187.74Z"/>
      <path d="M1037.03,884.24v-377.7c-72.45,63.27-142.9,124.79-214.06,186.93,71.56,63.77,141.83,126.4,214.06,190.77Z"/>
    </g>
  </g>
</svg>