<?xml version="1.0" encoding="UTF-8"?>
<svg id="Capa_2" xmlns="http://www.w3.org/2000/svg" viewBox="0 0 1373.31 1373.31">
  <g id="Capa_1-2" data-name="Capa_1">
    <g>
      <path d="M420.5,708.52h-162.91c3.14,91.32,41.55,179.3,80.18,228.05,37.45-19.61,74.68-39.11,112.53-58.93-17.96-54.06-27.29-110.86-29.8-169.12Z"/>
      <path d="M363.87,970.66c60.44,66.73,131.75,110.38,218.53,133.13-50.39-55.62-89.16-116.17-117.37-185.58-33.87,17.56-66.98,34.73-101.16,52.45Z"/>
      <path d="M509.77,915.13c4.92,10.67,9.63,21.47,15.04,31.89,31.76,61.22,72.14,115.93,123.76,161.95,4.2,3.74,10,5.67,16.17,9.05v-240.25c-54.37,1.72-106.95,11.14-158.65,27.67,1.36,3.61,2.32,6.74,3.68,9.68Z"/>
      <path d="M507.51,468.11c51.84,16.11,103.69,25.66,157.29,27.05v-237.47c-.76-.47-1.53-.94-2.29-1.42-68.25,57.92-119.26,128.62-155,211.83Z"/>
      <path d="M664.57,538.08c-58.95-2.05-115.91-12.21-171.47-29.75-14.29,32.76-32.26,130.51-28.76,156.37h200.23v-126.62Z"/>
      <path d="M952.66,664.69h163.36c-4.73-84.73-31.5-161.21-79.71-228.37-38.95,20.21-76.53,39.7-114.66,59.49,18.26,53.82,28.1,110.59,31.02,168.88Z"/>
      <path d="M587.76,268.27c-99.94,22.74-180.43,82.83-223.18,134.63,34.12,17.59,67.81,34.95,101.99,52.57,29.79-70.63,69.46-132.06,121.2-187.2Z"/>
      <path d="M491.11,865.35c56.91-18.16,114.64-28.23,173.4-30.42v-126.76h-201.27c2.16,54.01,11.06,105.98,27.87,157.18Z"/>
      <path d="M451.58,495.79c-38.24-19.86-75.86-39.4-114.59-59.52-48.12,67.29-75.03,143.7-79.71,228.36h163.47c2.59-58.44,12.95-115.13,30.83-168.85Z"/>
      <path d="M952.68,708.39c-2.13,58.99-12.14,115.73-29.52,169.37,38.21,19.95,75.28,39.29,112.65,58.8,39.95-42.98,81.76-161.94,79.5-228.17h-162.64Z"/>
      <path d="M867.47,905.43c-52.28-16.58-104.79-25.99-158.99-27.64v240.5c6.05-3.3,11.44-5.19,15.5-8.64,27.33-23.29,50.68-50.34,72.26-78.89,29-38.37,52.56-79.91,71.23-125.34Z"/>
      <path d="M876,985.31c-11.84,20.97-24.9,41.37-38.79,61.05-13.72,19.43-29.15,37.64-44.28,56.94,84.98-22.3,156.06-65.95,216.67-132.72-34.51-17.84-67.7-34.98-100.2-51.78-11.69,23.5-21.56,45.56-33.39,66.51Z"/>
      <path d="M686.65,0C307.43,0,0,307.43,0,686.65s307.43,686.65,686.65,686.65,686.65-307.43,686.65-686.65S1065.88,0,686.65,0ZM686.47,1177.95c-270.47-.14-492.41-220.88-491.24-493.93,1.15-268.77,221.16-489.78,491.4-488.65,271.06-1.17,490.93,220.66,491.45,489.99.52,272.25-221.18,492.74-491.6,492.6Z"/>
      <path d="M908.85,708.62h-200.32v126.44c59.89,1.8,117.32,12.42,173.43,30.03,17.37-46.34,30.03-132.03,26.9-156.46Z"/>
      <path d="M710.77,256.29l-2.02,1.43v237.5c53.74-1.6,105.49-10.99,157.17-27.08-36.08-83.48-87.01-154.09-155.15-211.85Z"/>
      <path d="M1008.61,403.02c-35.83-53.6-159.46-127.57-222.33-133.98,51.07,54.36,90.68,115.84,120.51,186.49,34.22-17.65,67.9-35.02,101.82-52.51Z"/>
      <path d="M880.7,508.15c-56.07,17.93-113.28,27.87-172.15,29.96v126.39h201.31c-2.7-53.61-11.79-105.43-29.16-156.34Z"/>
    </g>
  </g>
</svg>