<?xml version="1.0" encoding="UTF-8"?>
<svg id="Capa_2" xmlns="http://www.w3.org/2000/svg" viewBox="0 0 1373.31 1373.31">
  <g id="Capa_1-2" data-name="Capa_1">
    <g>
      <path d="M695.91,283.99c-125.81-1.15-230.79,46.74-312.26,142.62-67.95,79.96-98.4,173.55-93.1,278.49,3.56,70.35,25.04,135.02,63.14,194.12,4.84,7.51,6.21,14.01,3.58,22.71-7.2,23.84-13.43,47.97-20.01,72-5.58,20.42-11.11,40.86-17.16,63.17,46.99-12.31,91.76-23.68,136.27-35.98,10.36-2.86,18.23-1.54,27.42,3.87,88.13,51.97,182.91,69.16,283.17,49.03,210.9-42.34,348.86-241.95,315.61-454.81-29.57-189.32-194.93-333.46-386.65-335.22ZM868.58,916.82c-15.95,7.45-34.29,9.8-51.53,14.48-.23-.86-.46-1.71-.69-2.57-32.83-.65-62.44-13.01-92.59-24.32-103.26-38.75-176.37-111.85-234.54-202.65-18.82-29.37-36.91-59-45.4-93.23-13.85-55.9-2.62-105.27,39.67-145.98,17.4-16.75,38.34-20.34,61.12-14.74,13.65,3.36,22.72,11.93,27.6,25.49,10.99,30.51,22.4,60.87,33.88,91.21,3.41,9.01,3.17,17.47-2.48,25.21-5.59,7.66-11.74,14.91-17.78,22.23-4.17,5.05-8.69,9.82-12.87,14.87-8.71,10.51-9.28,20.66-2.13,33.19,35.49,62.17,84.73,109.59,148.63,141.79,4.67,2.35,9.46,4.6,14.43,6.17,10.17,3.22,19.17,1.84,26.57-6.97,12.22-14.56,25.01-28.64,37.29-43.14,8.83-10.43,14.44-13.14,26.45-7.08,34.79,17.57,69.26,35.82,103.39,54.64,3.98,2.19,7.39,9.74,7.16,14.61-2.65,54.16-18.42,74.5-66.18,96.81Z"/>
      <path d="M686.65,0C307.43,0,0,307.43,0,686.65s307.43,686.65,686.65,686.65,686.65-307.43,686.65-686.65S1065.88,0,686.65,0ZM1166.58,732.13c-20.76,215.91-190.99,394.09-405.23,425.65-103.13,15.19-201.05-1.14-294.07-48.15-5.17-2.61-12.71-3.22-18.38-1.77-78.39,20.13-156.64,40.79-234.92,61.31-2.51.66-5.06,1.14-9.77,2.19,6.87-24.98,13.29-48.26,19.67-71.56,14.88-54.36,29.5-108.8,44.81-163.04,2.69-9.53,2.01-17.02-2.72-25.84-49.6-92.52-68.64-191.32-52.81-294.94,24.48-160.27,109.11-280.61,251.62-357.76,201.25-108.95,455.87-55.47,598.43,123.71,81.73,102.72,115.89,219.95,103.36,350.21Z"/>
    </g>
  </g>
</svg>